<?xml version="1.0" encoding="UTF-8" standalone="no"?>
<svg width="150px" height="150px" viewBox="0 0 150 150" version="1.1" xmlns="http://www.w3.org/2000/svg" xmlns:xlink="http://www.w3.org/1999/xlink" xmlns:sketch="http://www.bohemiancoding.com/sketch/ns">
    <!-- Generator: Sketch 3.3 (11970) - http://www.bohemiancoding.com/sketch -->
    <title>Basktball</title>
    <desc>Created with Sketch.</desc>
    <defs></defs>
    <g id="Elements" stroke="none" stroke-width="1" fill="none" fill-rule="evenodd" sketch:type="MSPage">
        <g id="Basktball" sketch:type="MSArtboardGroup" fill="#000000">
            <g id="Group" sketch:type="MSLayerGroup" transform="translate(35.000000, 35.000000)">
                <path d="M10.1363632,66.6307458 L27.3870562,49.347725 C19.6801256,42.5449858 9.81477902,39.4864514 0.165670111,40.1633922 C0.131610705,49.6262786 3.4575513,59.0963074 10.1363632,66.6307458 L10.1363632,66.6307458 Z" id="Shape" sketch:type="MSShapeGroup"></path>
                <path d="M39.7696305,36.9413762 L45.4211157,31.2790402 C37.7775513,22.7097474 34.2599275,11.7334658 34.8516107,0.94209296 C27.1454721,1.90234896 19.6722048,5.12595216 13.4979473,10.620045 L39.7696305,36.9413762 L39.7696305,36.9413762 Z" id="Shape" sketch:type="MSShapeGroup"></path>
                <path d="M36.4096305,40.308621 L10.1363632,13.9864962 C4.6535909,20.1734018 1.43695724,27.6610178 0.478541398,35.380365 C11.2500265,34.789133 22.2052741,38.3119234 30.7581454,45.970957 L36.4096305,40.308621 L36.4096305,40.308621 Z" id="Shape" sketch:type="MSShapeGroup"></path>
                <path d="M48.7914127,27.9030658 L66.0413137,10.620045 C58.5213137,3.92682256 49.0694325,0.59449616 39.62468,0.62941456 C38.9482444,10.2978434 42.0017097,20.1813378 48.7914127,27.9030658 L48.7914127,27.9030658 Z" id="Shape" sketch:type="MSShapeGroup"></path>
                <path d="M69.4021058,13.9872898 L52.1514127,31.2703106 C59.8591355,38.0722562 69.7236899,41.1315842 79.3735909,40.4538498 C79.4076503,30.9909634 76.0817097,21.5217282 69.4021058,13.9872898 L69.4021058,13.9872898 Z" id="Shape" sketch:type="MSShapeGroup"></path>
                <path d="M48.7819077,34.646285 L43.1296305,40.308621 L69.4021058,66.6299522 C74.8856701,60.4438402 78.1015117,52.9562242 79.0607196,45.236877 C68.2900265,45.8289026 57.334779,42.3053186 48.7819077,34.646285 L48.7819077,34.646285 Z" id="Shape" sketch:type="MSShapeGroup"></path>
                <path d="M13.4979473,69.9979906 C21.0187394,76.691213 30.4698285,80.0227458 39.9153731,79.988621 C40.5910166,70.3201922 37.5375513,60.4366978 30.7486404,52.7149698 L13.4979473,69.9979906 L13.4979473,69.9979906 Z" id="Shape" sketch:type="MSShapeGroup"></path>
                <path d="M39.7696305,43.6766594 L34.1173533,49.3389954 C41.7617097,57.9074946 45.2785414,68.8845698 44.6892345,79.6759426 C52.3929968,78.714893 59.8670562,75.492877 66.0413137,69.9987842 L39.7696305,43.6766594 L39.7696305,43.6766594 Z" id="Shape" sketch:type="MSShapeGroup"></path>
            </g>
        </g>
    </g>
</svg>