<?xml version="1.0" encoding="UTF-8" standalone="no"?>
<svg width="150px" height="150px" viewBox="0 0 150 150" version="1.1" xmlns="http://www.w3.org/2000/svg" xmlns:xlink="http://www.w3.org/1999/xlink" xmlns:sketch="http://www.bohemiancoding.com/sketch/ns">
    <!-- Generator: Sketch 3.3 (11970) - http://www.bohemiancoding.com/sketch -->
    <title>Cycling</title>
    <desc>Created with Sketch.</desc>
    <defs></defs>
    <g id="Elements" stroke="none" stroke-width="1" fill="none" fill-rule="evenodd" sketch:type="MSPage">
        <g id="Cycling" sketch:type="MSArtboardGroup" fill="#000000">
            <g id="Group" sketch:type="MSLayerGroup" transform="translate(26.000000, 33.000000)">
                <path d="M67.639,18.298 C72.614,19.108 77.292,15.736 78.102,10.766 C78.911,5.799 75.544,1.111 70.57,0.3 C65.603,-0.509 60.92,2.865 60.111,7.833 C59.3,12.806 62.673,17.489 67.639,18.298 L67.639,18.298 Z" id="Shape" sketch:type="MSShapeGroup"></path>
                <path d="M82.679,43.574 C80.121,43.011 77.568,42.987 75.136,43.421 L72.348,36.144 L76.214,36.147 C78.316,36.148 80.018,34.445 80.02,32.347 C80.021,30.257 78.338,28.559 76.254,28.539 C76.242,28.539 76.233,28.538 76.22,28.538 L63.664,28.531 C63.664,28.531 59.361,16.42 58.91,15.611 C57.07,12.306 52.9,11.122 49.598,12.962 L27.644,25.19 C24.342,27.028 23.155,31.197 24.995,34.5 C25.573,35.538 26.382,36.361 27.321,36.952 C28.262,37.807 29.391,38.36 30.577,38.597 L44.157,45.051 L43.563,61.309 C43.486,63.41 45.126,65.172 47.223,65.248 C47.259,65.249 47.293,65.25 47.33,65.25 C49.381,65.27 51.087,63.65 51.164,61.587 L51.848,42.83 C51.903,41.312 51.052,39.909 49.679,39.257 L39.454,34.394 L39.173,34.438 L54.603,25.84 L55.029,27.054 L57.429,33.635 C57.974,35.122 59.384,36.118 60.968,36.132 C60.978,36.133 60.988,36.133 60.999,36.133 L66.692,36.138 C66.72,36.291 66.757,36.443 66.815,36.594 L70.067,45.07 C64.907,47.574 60.894,52.323 59.568,58.349 C57.271,68.791 63.899,79.161 74.344,81.458 C84.787,83.756 95.156,77.126 97.454,66.683 C99.753,56.238 93.124,45.872 82.679,43.574 L82.679,43.574 Z M92.255,65.54 C90.588,73.118 83.067,77.928 75.489,76.261 C67.91,74.594 63.102,67.073 64.77,59.494 C65.696,55.283 68.433,51.933 71.983,50.068 L76.601,62.117 C76.935,62.986 77.672,63.579 78.517,63.764 C79.008,63.871 79.536,63.843 80.04,63.651 C81.412,63.123 82.1,61.585 81.573,60.212 L77.092,48.525 C78.543,48.377 80.037,48.445 81.535,48.774 C89.113,50.441 93.923,57.962 92.255,65.54 L92.255,65.54 Z" id="Shape" sketch:type="MSShapeGroup"></path>
                <path d="M19.979,43.21 C9.287,43.21 0.585,51.909 0.585,62.605 C0.585,73.299 9.286,82.001 19.979,82.001 C30.674,82.001 39.376,73.299 39.376,62.605 C39.376,51.909 30.675,43.21 19.979,43.21 L19.979,43.21 Z M19.979,76.678 C12.221,76.678 5.909,70.365 5.909,62.605 C5.909,54.847 12.221,48.534 19.979,48.534 C27.739,48.534 34.05,54.847 34.05,62.605 C34.051,70.364 27.739,76.678 19.979,76.678 L19.979,76.678 Z" id="Shape" sketch:type="MSShapeGroup"></path>
            </g>
        </g>
    </g>
</svg>