<?xml version="1.0" encoding="UTF-8" standalone="no"?>
<svg width="150px" height="150px" viewBox="0 0 150 150" version="1.1" xmlns="http://www.w3.org/2000/svg" xmlns:xlink="http://www.w3.org/1999/xlink" xmlns:sketch="http://www.bohemiancoding.com/sketch/ns">
    <!-- Generator: Sketch 3.3 (11970) - http://www.bohemiancoding.com/sketch -->
    <title>Hiking</title>
    <desc>Created with Sketch.</desc>
    <defs></defs>
    <g id="Elements" stroke="none" stroke-width="1" fill="none" fill-rule="evenodd" sketch:type="MSPage">
        <g id="Hiking" sketch:type="MSArtboardGroup" fill="#000000">
            <path d="M91.9506265,36.7813785 C91.9506265,42.2542926 87.5257171,46.562757 82.169248,46.562757 C76.8127788,46.562757 72.3878695,42.1378476 72.3878695,36.7813785 C72.3878695,31.4249093 76.8127788,27 82.169248,27 C87.5257171,27 91.9506265,31.4249093 91.9506265,36.7813785 L91.9506265,36.7813785 Z M67.0314003,49.3574365 C67.6136252,47.3778718 66.3327304,44.6996372 63.7709408,44.5831923 C62.3736011,44.5831923 59.4624765,44.4667473 57.2500219,44.4667473 C55.0375672,44.4667473 53.0580025,44.8160822 52.4757776,46.7956469 L43.1601791,72.5299879 C42.5779541,74.5095526 43.625959,76.6055623 45.6055237,77.1877872 L52.7086676,80.0989117 C54.6882323,80.7975816 56.9006869,79.7495768 57.4829118,77.7700121 L67.0314003,49.3574365 L67.0314003,49.3574365 Z M104.876019,71.947763 L103.94446,71.4819831 L103.94446,58.905925 L100.45111,58.905925 L100.45111,69.7353083 L92.7657413,66.1255139 L83.2172528,52.850786 C81.7034681,49.8232164 78.9087885,47.4943168 74.3674342,48.1929867 C70.1754148,48.7752116 68.6616301,53.4330109 67.6136252,58.5565901 L64.8189457,72.180653 L64.8189457,72.180653 L64.8189457,72.180653 L62.490046,82.7771463 C62.3736011,83.2429262 62.3736011,83.5922612 62.3736011,83.9415961 L59.9282564,96.0518742 L45.6055237,114.100846 C43.9752939,116.080411 44.3246289,119.107981 46.4206385,120.621765 C47.2357534,121.320435 48.1673133,121.553325 49.2153181,121.66977 C50.6126579,121.66977 52.0099977,121.087545 52.9415575,119.923096 L67.8465152,100.942563 C68.3122951,100.360339 68.5451851,99.7781137 68.7780751,99.0794438 L71.1069747,88.3665054 L80.0732383,100.243894 L81.0047982,118.875091 C81.1212431,121.320435 83.1008078,123.3 85.5461525,123.3 L85.8954874,123.3 C88.457277,123.183555 90.4368417,120.9711 90.3203967,118.409311 L89.2723919,98.2643289 C89.2723919,97.332769 88.9230569,96.4012092 88.340832,95.7025393 L79.8403483,84.4073761 L83.7994777,65.659734 L87.5257171,70.8997582 C87.8750521,71.3655381 88.340832,71.714873 88.8066119,72.064208 L100.334665,77.5371221 L100.334665,121.90266 L103.828015,121.90266 L103.828015,78.468682 C104.876019,78.352237 105.924024,77.6535671 106.389804,76.4891173 C107.321364,74.8588875 106.622694,72.7628779 104.876019,71.947763 L104.876019,71.947763 Z" id="Shape" sketch:type="MSShapeGroup"></path>
        </g>
    </g>
</svg>