<?xml version="1.0" encoding="UTF-8" standalone="no"?>
<svg width="150px" height="150px" viewBox="0 0 150 150" version="1.1" xmlns="http://www.w3.org/2000/svg" xmlns:xlink="http://www.w3.org/1999/xlink" xmlns:sketch="http://www.bohemiancoding.com/sketch/ns">
    <!-- Generator: Sketch 3.3 (11970) - http://www.bohemiancoding.com/sketch -->
    <title>Meditation</title>
    <desc>Created with Sketch.</desc>
    <defs></defs>
    <g id="Elements" stroke="none" stroke-width="1" fill="none" fill-rule="evenodd" sketch:type="MSPage">
        <g id="Meditation" sketch:type="MSArtboardGroup" fill="#000000">
            <g id="Group" sketch:type="MSLayerGroup" transform="translate(45.000000, 34.000000)">
                <path d="M29.6778551,23.5923158 C36.2063333,23.5923158 41.5043623,18.3102632 41.5043623,11.7927474 C41.5043623,5.28034737 36.2063333,0 29.6778551,0 C23.1408261,0 17.8462174,5.28034737 17.8462174,11.7927474 C17.8462174,18.3102632 23.1408261,23.5923158 29.6778551,23.5923158 L29.6778551,23.5923158 Z" id="Shape" sketch:type="MSShapeGroup"></path>
                <path d="M52.5108551,68.4185684 C53.1889275,68.9548737 53.9986812,69.2157789 54.8033043,69.2157789 C55.8892464,69.2157789 56.9657826,68.7400105 57.6951594,67.8251368 C58.9615217,66.2349789 58.6955942,63.9192316 57.1008841,62.6564842 C49.2231014,56.4194842 40.9716522,37.6317474 38.456029,30.9189789 C38.2602174,30.3971684 37.9515362,29.9538 37.5770145,29.5888737 C37.3102319,28.9928842 36.8801304,28.5196737 36.3585362,28.1982316 C34.5440725,26.2081895 31.9010435,24.9914842 29.0168841,25.0929474 C24.638913,25.2378947 21.0741159,28.3295368 20.1249855,32.3906211 C17.4939275,38.1416211 10.1762174,53.0029895 1.57931884,60.6681474 C0.0615652174,62.0229789 -0.070115942,64.3481053 1.2885942,65.8632316 C2.01711594,66.6766421 3.02695652,67.0893158 4.04021739,67.0893158 C4.91581159,67.0893158 5.79397101,66.7806632 6.49769565,66.1539789 C11.7734928,61.4491579 16.4926377,54.6153158 20.1574783,48.3561474 C20.189971,50.9447368 20.2122029,53.7413684 20.2122029,56.6360526 C20.2122029,57.5372842 20.3473043,58.4061158 20.5841594,59.2314632 C1.74691304,68.7860526 -1.0773913,72.3159474 0.646434783,76.8502421 C1.6614058,79.5266526 4.06501449,80.6146105 8.15055072,80.6129053 C11.5178261,80.6129053 16.0317536,79.8762316 21.8573623,78.6748737 C24.2541304,78.1820526 26.6201159,77.6491579 28.7509565,77.1495158 C38.066971,79.5445579 43.9994638,80.5924421 47.8438696,80.5924421 C52.2782754,80.5924421 53.949942,79.2035053 54.8853913,76.8911684 C55.8695797,74.4696947 57.4839565,70.4708526 38.5842899,59.9118632 C38.9596667,58.887 39.1794203,57.7896632 39.1794203,56.6360526 C39.1794203,54.4234737 39.1657391,52.2774 39.1469275,50.2319368 C42.810913,57.1408105 47.4932899,64.4453053 52.5108551,68.4185684 L52.5108551,68.4185684 Z M29.5273623,69.8271158 C28.5611304,69.5730316 27.5376087,69.2933684 26.4482464,68.9898316 C27.0331159,68.688 27.6427826,68.3793474 28.2857971,68.0655789 C28.8886232,68.2173474 29.5145362,68.3145474 30.1626812,68.3145474 C30.6064638,68.3145474 31.0374203,68.2693579 31.4546957,68.1934737 C31.6351159,68.3401263 31.8275072,68.4697263 32.037,68.5831263 C32.2883913,68.7221053 32.5346522,68.8636421 32.7843333,68.9983579 C31.7120725,69.2839895 30.6167246,69.5576842 29.5273623,69.8271158 L29.5273623,69.8271158 Z" id="Shape" sketch:type="MSShapeGroup"></path>
            </g>
        </g>
    </g>
</svg>