<?xml version="1.0" encoding="UTF-8" standalone="no"?>
<svg width="150px" height="150px" viewBox="0 0 150 150" version="1.1" xmlns="http://www.w3.org/2000/svg" xmlns:xlink="http://www.w3.org/1999/xlink" xmlns:sketch="http://www.bohemiancoding.com/sketch/ns">
    <!-- Generator: Sketch 3.3 (11970) - http://www.bohemiancoding.com/sketch -->
    <title>Running</title>
    <desc>Created with Sketch.</desc>
    <defs></defs>
    <g id="Elements" stroke="none" stroke-width="1" fill="none" fill-rule="evenodd" sketch:type="MSPage">
        <g id="Running" sketch:type="MSArtboardGroup" fill="#000000">
            <g id="Group" sketch:type="MSLayerGroup" transform="translate(30.000000, 31.000000)">
                <ellipse id="Oval" sketch:type="MSShapeGroup" cx="69.0494545" cy="11.8617216" rx="10.1572273" ry="10.1572273"></ellipse>
                <path d="M88.1086136,33.8868239 C87.1302216,31.7556932 84.623733,30.8183239 82.4905511,31.7926136 L65.9891591,39.3448977 L63.7247045,25.0669375 C63.5749716,24.0926477 63.099108,23.2557841 62.4263352,22.6301875 C62.0243125,21.7481989 61.3187216,20.9913295 60.3710966,20.5421307 L42.1405966,11.9642784 C41.0596477,11.4555966 39.8084545,11.430983 38.7069943,11.8924886 C37.5973295,12.349892 36.7399545,13.2544432 36.3440852,14.3846193 L30.3075909,31.4275114 C29.5220057,33.6304318 30.6788466,36.0589773 32.8797159,36.8404602 C33.3494261,37.0004489 33.8273409,37.0804432 34.295,37.0804432 C36.0384659,37.0804432 37.6732216,35.9994943 38.2885625,34.2601307 L42.7661932,21.6251307 L49.2211193,24.669017 L35.1626307,42.5323636 C34.912392,42.7169659 34.6847159,42.9241307 34.4755,43.1579602 L1.99165341,80.5235114 C0.457403409,82.2895398 0.646107955,84.9580682 2.4141875,86.5005227 C3.21002841,87.1979091 4.20277841,87.5383977 5.189375,87.5383977 C6.36877841,87.5383977 7.55023295,87.046125 8.39325,86.0800398 L36.0220568,54.2956307 L49.0016477,63.7944432 L29.3476591,72.9917386 C27.224733,73.9803864 26.3160795,76.501233 27.3026761,78.6241591 C28.022625,80.1584091 29.5527727,81.0670625 31.1465057,81.0670625 C31.7474886,81.0670625 32.354625,80.9357898 32.9371477,80.6629886 L59.0706761,68.440267 C60.4285284,67.8064659 61.3494886,66.5019432 61.4971705,65.0189716 C61.6386989,63.521642 60.9884886,62.0694375 59.7742159,61.1853977 L46.8828239,51.7460682 L57.2800341,38.5346989 L58.4922557,46.1751818 C58.7014716,47.4899602 59.5075682,48.6221875 60.6705625,49.2477841 C61.2982102,49.5841705 61.987392,49.7564659 62.6745227,49.7564659 C63.2755057,49.7564659 63.8764886,49.6292955 64.4364489,49.3708523 L86.0164545,39.5007841 C88.1496364,38.5305966 89.0829034,36.0118011 88.1086136,33.8868239 L88.1086136,33.8868239 Z" id="Shape" sketch:type="MSShapeGroup"></path>
            </g>
        </g>
    </g>
</svg>