<?xml version="1.0" encoding="UTF-8" standalone="no"?>
<svg width="150px" height="150px" viewBox="0 0 150 150" version="1.1" xmlns="http://www.w3.org/2000/svg" xmlns:xlink="http://www.w3.org/1999/xlink" xmlns:sketch="http://www.bohemiancoding.com/sketch/ns">
    <!-- Generator: Sketch 3.3 (11970) - http://www.bohemiancoding.com/sketch -->
    <title>Soccer</title>
    <desc>Created with Sketch.</desc>
    <defs></defs>
    <g id="Elements" stroke="none" stroke-width="1" fill="none" fill-rule="evenodd" sketch:type="MSPage">
        <g id="Soccer" sketch:type="MSArtboardGroup" fill="#000000">
            <g id="Слой_1" sketch:type="MSLayerGroup" transform="translate(37.000000, 37.000000)">
                <path d="M50.2444444,40.1955556 L33.6088889,34.8755556 L32.68,18.5777778 C34.7911111,17.7333333 41.1244444,15.2844444 48.2177778,13.68 C49.6533333,15.2 54.6355556,20.6044444 58.6044444,26.6 C57.76,28.3733333 54.8888889,34.1155556 50.2444444,40.1955556 L50.2444444,40.1955556 Z" id="Shape" sketch:type="MSShapeGroup"></path>
                <path d="M6.50222222,24.9111111 C11.4844444,19.0844444 17.3111111,15.2 18.8311111,14.1866667 C23.4755556,15.4533333 28.7111111,17.7333333 30.4,18.4933333 L31.3288889,35.1288889 L19.5911111,45.2622222 C12.16,42.56 7.76888889,40.6177778 6.41777778,39.9422222 C5.15111111,33.3555556 6.24888889,26.3466667 6.50222222,24.9111111 L6.50222222,24.9111111 Z" id="Shape" sketch:type="MSShapeGroup"></path>
                <path d="M41.6311111,68.5688889 C43.7422222,67.1333333 49.2311111,63.2488889 54.2133333,58.0133333 C55.8177778,58.4355556 60.2088889,59.5333333 65.0222222,59.7022222 C64.6,61.56 63.6711111,65.1066667 61.3911111,67.8088889 C56.9155556,71.3555556 51.5111111,73.8888889 45.7688889,75.0711111 C43.9955556,73.0444444 42.3911111,70.0044444 41.6311111,68.5688889 L41.6311111,68.5688889 Z" id="Shape" sketch:type="MSShapeGroup"></path>
                <path d="M1.68888889,49.1466667 C0.591111111,45.6 0,41.8844444 0,38 C0,32.9333333 1.01333333,28.12 2.78666667,23.6444444 L4.22222222,24.8266667 C3.88444444,26.9377778 2.95555556,33.8622222 4.30666667,40.6177778 C3.88444444,41.6311111 2.53333333,44.7555556 1.68888889,49.1466667 L1.68888889,49.1466667 Z" id="Shape" sketch:type="MSShapeGroup"></path>
                <path d="M50.4133333,2.11111111 C51.0044444,2.36444444 51.68,2.53333333 52.2711111,2.78666667 C51.8488889,2.78666667 51.4266667,2.87111111 51.1733333,2.87111111 C50.92,2.61777778 50.6666667,2.36444444 50.4133333,2.11111111 L50.4133333,2.11111111 Z" id="Shape" sketch:type="MSShapeGroup"></path>
                <path d="M17.5644444,12.3288889 C15.8755556,13.4266667 10.3866667,17.1422222 5.32,22.8 L3.71555556,21.5333333 C7.00888889,14.6933333 12.3288889,8.95111111 18.8311111,5.15111111 C17.8177778,8.36 17.6488889,11.1466667 17.5644444,12.3288889 L17.5644444,12.3288889 Z" id="Shape" sketch:type="MSShapeGroup"></path>
                <path d="M32.7644444,36.9022222 L49.7377778,42.3066667 C51.7644444,48.4711111 52.5244444,54.5511111 52.6933333,56.3244444 C47.5422222,61.8133333 41.4622222,65.9511111 39.9422222,66.9644444 C33.0177778,66.12 26.6,63.08 24.9955556,62.32 C24.4044444,60.7155556 21.9555556,54.0444444 21.0266667,47.0355556 L32.7644444,36.9022222 L32.7644444,36.9022222 Z" id="Shape" sketch:type="MSShapeGroup"></path>
                <path d="M65.9511111,57.5911111 C61.1377778,57.5066667 56.5777778,56.4088889 54.8888889,55.9022222 C54.6355556,53.7911111 53.8755556,47.7955556 51.8488889,41.6311111 C56.6622222,35.4666667 59.6177778,29.64 60.5466667,27.6133333 C65.5288889,28.2044444 69.4977778,29.8088889 70.7644444,30.3155556 C71.3555556,31.7511111 73.3822222,37.3244444 73.6355556,45.0088889 C73.2133333,46.2755556 70.5955556,52.9466667 65.9511111,57.5911111 L65.9511111,57.5911111 Z" id="Shape" sketch:type="MSShapeGroup"></path>
                <path d="M5.99555556,42.3066667 C7.85333333,43.1511111 12.0755556,45.0088889 18.8311111,47.4577778 C19.6755556,54.0444444 21.7866667,60.2088889 22.7155556,62.5733333 C20.8577778,63.3333333 16.2977778,65.0222222 11.7377778,65.4444444 C8.19111111,62.0666667 5.32,58.0133333 3.29333333,53.5377778 C3.8,48.1333333 5.32,44.08 5.99555556,42.3066667 L5.99555556,42.3066667 Z" id="Shape" sketch:type="MSShapeGroup"></path>
                <path d="M49.4,4.30666667 L47.7111111,11.4844444 C39.9422222,13.1733333 33.3555556,15.7911111 31.5822222,16.5511111 C30.0622222,15.8755556 24.8266667,13.5111111 19.8444444,12.16 C19.9288889,10.64 20.3511111,7.09333333 21.7866667,3.63111111 C26.6844444,1.26666667 32.1733333,0 38,0 C39.2666667,0 40.5333333,0.0844444444 41.8,0.168888889 C46.1911111,1.01333333 48.64,3.37777778 49.4,4.30666667 L49.4,4.30666667 Z" id="Shape" sketch:type="MSShapeGroup"></path>
                <path d="M24.0666667,64.3466667 C25.84,65.2755556 32.3422222,68.2311111 39.4355556,69.16 C40.0266667,70.3422222 41.4622222,73.2133333 43.2355556,75.5777778 C41.5466667,75.8311111 39.7733333,75.9155556 38,75.9155556 C28.88,75.9155556 20.52,72.7066667 13.9333333,67.3022222 C18.5777778,66.6266667 22.7155556,65.0222222 24.0666667,64.3466667 L24.0666667,64.3466667 Z" id="Shape" sketch:type="MSShapeGroup"></path>
                <path d="M74.3111111,49.2311111 C72.7066667,54.4666667 70.0044444,59.1111111 66.4577778,63.08 C67.0488889,61.3066667 67.3022222,59.7866667 67.4711111,59.1111111 C70.68,56.0711111 72.96,52.1022222 74.3111111,49.2311111 L74.3111111,49.2311111 Z" id="Shape" sketch:type="MSShapeGroup"></path>
                <path d="M70.9333333,28.0355556 C69.0755556,27.2755556 65.1911111,26.0088889 60.5466667,25.5022222 C56.4088889,19.1688889 51.3422222,13.68 49.8222222,12.16 L51.5111111,5.15111111 C53.0311111,5.06666667 55.6488889,4.89777778 56.9155556,5.15111111 C63.3333333,8.86666667 68.5688889,14.3555556 71.8622222,20.9422222 C72.0311111,23.1377778 71.3555556,26.3466667 70.9333333,28.0355556 L70.9333333,28.0355556 Z" id="Shape" sketch:type="MSShapeGroup"></path>
                <path d="M72.7911111,29.4711111 C72.96,28.7111111 73.4666667,27.1066667 73.72,25.2488889 C75.24,29.2177778 76,33.5244444 76,38 C76,39.52 75.9155556,40.9555556 75.7466667,42.3911111 C75.1555556,35.5511111 73.3822222,30.8222222 72.7911111,29.4711111 L72.7911111,29.4711111 Z" id="Shape" sketch:type="MSShapeGroup"></path>
            </g>
        </g>
    </g>
</svg>