<?xml version="1.0" encoding="UTF-8" standalone="no"?>
<svg width="150px" height="150px" viewBox="0 0 150 150" version="1.1" xmlns="http://www.w3.org/2000/svg" xmlns:xlink="http://www.w3.org/1999/xlink" xmlns:sketch="http://www.bohemiancoding.com/sketch/ns">
    <!-- Generator: Sketch 3.3 (11970) - http://www.bohemiancoding.com/sketch -->
    <title>Swimming</title>
    <desc>Created with Sketch.</desc>
    <defs></defs>
    <g id="Elements" stroke="none" stroke-width="1" fill="none" fill-rule="evenodd" sketch:type="MSPage">
        <g id="Swimming" sketch:type="MSArtboardGroup" fill="#000000">
            <g id="Group" sketch:type="MSLayerGroup" transform="translate(28.000000, 35.000000)">
                <path d="M56.116,25.601 C56.407,30.564 60.664,34.351 65.627,34.057 C70.592,33.764 74.376,29.511 74.083,24.546 C73.793,19.586 69.538,15.796 64.57,16.087 C59.61,16.379 55.823,20.64 56.116,25.601 L56.116,25.601 Z" id="Shape" sketch:type="MSShapeGroup"></path>
                <path d="M2.654,33.074 C2.682,33.075 5.649,33.262 7.834,36.211 C10.354,39.617 15.61,46.707 24.154,45.341 C27.9,44.746 31.108,41.677 34.214,38.711 C37.425,35.64 40.751,32.455 43.882,32.766 C46.302,32.998 48.247,35.102 50.496,37.54 C53.794,41.105 57.878,45.527 65.165,45.527 C65.325,45.527 65.487,45.527 65.649,45.523 C72.445,45.344 76.532,41.392 80.137,37.905 C83.34,34.806 85.848,32.361 89.794,32.475 C91.224,32.548 92.455,31.377 92.497,29.924 C92.542,28.474 91.401,27.265 89.948,27.222 C83.81,27.032 79.917,30.805 76.484,34.126 C73.283,37.219 70.26,40.143 65.509,40.267 C62.479,40.347 60.241,39.324 58.297,37.809 L53.671,29.823 C53.614,29.458 53.619,29.051 53.41,28.73 C52.625,27.514 52.09,26.251 51.002,25.47 L44.817,14.193 L62.569,7.916 C64.525,7.227 65.55,5.081 64.857,3.126 C64.167,1.173 62.023,0.145 60.067,0.838 L38.149,8.583 C37.11,8.95 36.285,9.756 35.893,10.785 C35.5,11.814 35.577,12.963 36.108,13.93 L42.422,25.446 L13.614,35.101 C13.08,34.447 12.562,33.77 12.055,33.083 C8.344,28.074 3.06,27.829 2.836,27.821 C1.37,27.792 0.167,28.905 0.115,30.355 C0.067,31.806 1.201,33.023 2.654,33.074 L2.654,33.074 Z M58.289,37.801 C57.597,37.261 56.937,36.657 56.297,36.014 C56.94,36.654 57.597,37.258 58.289,37.801 L58.289,37.801 Z" id="Shape" sketch:type="MSShapeGroup"></path>
                <path d="M76.468,51.19 C73.268,54.284 70.247,57.207 65.493,57.332 C60.305,57.467 57.395,54.346 54.341,51.036 C51.609,48.08 48.784,45.02 44.369,44.597 C38.835,44.065 34.442,48.268 30.564,51.973 C28.041,54.384 25.434,56.877 23.309,57.215 C18.327,58.003 15.009,54.158 12.039,50.147 C8.33,45.138 3.045,44.894 2.82,44.886 C1.372,44.855 0.189,45.948 0.12,47.386 C0.051,48.823 1.165,50.049 2.601,50.138 C2.723,50.146 5.653,50.358 7.814,53.276 C10.336,56.683 15.594,63.774 24.136,62.407 C27.877,61.809 31.088,58.742 34.195,55.776 C37.408,52.704 40.741,49.512 43.866,49.831 C46.285,50.063 48.227,52.166 50.477,54.603 C53.775,58.17 57.857,62.592 65.147,62.592 C65.306,62.592 65.468,62.591 65.627,62.587 C72.426,62.407 76.513,58.457 80.119,54.971 C83.251,51.942 85.738,49.536 89.511,49.536 C89.6,49.536 89.689,49.537 89.778,49.539 C91.201,49.609 92.438,48.44 92.479,46.99 C92.524,45.541 91.381,44.329 89.93,44.285 C83.828,44.086 79.903,47.87 76.468,51.19 L76.468,51.19 Z" id="Shape" sketch:type="MSShapeGroup"></path>
                <path d="M89.95,61.35 C83.812,61.17 79.919,64.933 76.486,68.254 C73.285,71.349 70.262,74.27 65.511,74.396 C60.283,74.519 57.415,71.409 54.359,68.1 C51.627,65.14 48.803,62.085 44.386,61.661 C38.852,61.133 34.46,65.332 30.582,69.038 C28.059,71.448 25.451,73.941 23.328,74.278 C18.342,75.067 15.029,71.221 12.058,67.212 C8.347,62.202 3.063,61.957 2.839,61.951 C1.373,61.922 0.17,63.033 0.118,64.483 C0.065,65.934 1.199,67.151 2.652,67.205 C2.68,67.205 5.647,67.39 7.832,70.341 C10.352,73.745 15.608,80.834 24.152,79.469 C27.898,78.874 31.106,75.807 34.212,72.839 C37.423,69.768 40.749,66.58 43.88,66.893 C46.3,67.126 48.245,69.231 50.494,71.668 C53.792,75.237 57.876,79.657 65.163,79.657 C65.323,79.657 65.485,79.656 65.647,79.652 C72.443,79.472 76.53,75.52 80.135,72.034 C83.338,68.935 85.846,66.51 89.792,66.604 C91.222,66.679 92.453,65.505 92.495,64.054 C92.544,62.603 91.403,61.392 89.95,61.35 L89.95,61.35 Z" id="Shape" sketch:type="MSShapeGroup"></path>
            </g>
        </g>
    </g>
</svg>